<?xml version="1.0" encoding="UTF-8"?>
<svg width="24px" height="24px" fill="#000000" version="1.1" viewBox="0 0 24 24" xmlns="http://www.w3.org/2000/svg" xmlns:cc="http://creativecommons.org/ns#" xmlns:dc="http://purl.org/dc/elements/1.1/" xmlns:rdf="http://www.w3.org/1999/02/22-rdf-syntax-ns#">
 <metadata>
  <rdf:RDF>
   <cc:Work rdf:about="">
    <dc:format>image/svg+xml</dc:format>
    <dc:type rdf:resource="http://purl.org/dc/dcmitype/StillImage"/>
    <dc:title/>
   </cc:Work>
  </rdf:RDF>
 </metadata>
 <path d="M0 0h24v24H0z" fill="none"/>
 <path d="m12 2c-5.52 0-10 4.48-10 10s4.48 10 10 10 10-4.48 10-10-4.48-10-10-10zm0 18c-4.41 0-8-3.59-8-8 0-0.29 0.02-0.58 0.05-0.86 2.36-1.05 4.23-2.98 5.21-5.37 1.81 2.56 4.79 4.23 8.16 4.23 0.78 0 1.53-0.09 2.25-0.26 0.21 0.71 0.33 1.47 0.33 2.26 0 4.41-3.59 8-8 8z" fill="#00c89c"/>
 <path d="m11.285 18.57h1.43v-1.43h-1.43zm0.71498 1.43c-5.7198-9.533-2.8599-4.7665 0 0zm-2.8599-7.1498h1.43c0-0.78647 0.64348-1.43 1.43-1.43 0.78647 0 1.43 0.64348 1.43 1.43 0 1.43-2.1449 1.2512-2.1449 3.5749h1.43c0-1.6087 2.1449-1.7874 2.1449-3.5749-0.44969-4.0702-5.6282-3.016-5.7198 0z" fill="#00c89c" stroke-width=".71498"/>
</svg>
